<svg xmlns="http://www.w3.org/2000/svg" version="1.0" viewBox="0 0 7680 7230"><path d="M2045 7224c-193-40-265-76-391-196-50-48-112-119-138-158-68-100-184-335-233-470-75-208-240-781-289-1005-15-69-97-381-236-895-40-151-190-607-363-1110-56-162-110-324-119-360-10-36-40-135-66-220C59 2327 0 2005 0 1667c0-256 31-421 110-583 235-486 842-810 1840-983C2339 33 2822 0 3415 0c884 0 1438 64 2105 242 760 202 1330 555 1677 1037 72 100 213 334 213 354 0 5 18 49 40 98 77 171 148 401 184 599 62 332 60 847-4 1195-64 344-237 769-414 1016-25 35-61 87-81 114-67 95-260 297-390 408-396 339-758 554-1735 1027-206 100-553 271-770 380-598 300-894 440-1127 533-332 134-496 183-701 212-96 14-318 19-367 9z"/><path fill="#fff" d="M2045 7224c-114-24-165-39-165-47 0-6-3-7-6-4-4 4-34-8-68-26-77-41-229-186-290-277-68-100-184-335-233-470-94-259-302-998-287-1021 2-4 0-10-6-14-5-3-10-15-10-25 0-11-16-77-35-147s-37-139-39-153c-3-14-31-115-61-225-31-110-72-258-91-330-36-137-189-602-359-1095-56-162-110-324-119-360-10-36-40-135-66-220C59 2327 0 2005 0 1667c0-256 31-421 110-583 235-486 842-810 1840-983C2339 33 2822 0 3415 0c602 0 1160 40 1535 111 701 132 1218 318 1630 587 107 70 228 161 283 214 23 22 65 61 92 86 129 119 273 307 386 506 38 66 69 124 69 129s18 49 40 98c156 347 230 726 230 1185 0 425-61 768-197 1109-30 77-59 145-63 150-4 6-10 21-13 35-8 33-133 251-188 328-24 33-62 86-84 117-66 94-283 319-415 431-175 148-455 346-616 435-34 19-108 62-165 95-140 83-476 255-929 474-206 100-553 271-770 380-454 227-908 446-995 480-33 13-79 31-102 42-24 10-49 18-56 18s-17 4-22 9c-13 12-165 71-165 64 0-3-6-1-12 5-17 13-213 76-302 96-124 29-277 46-400 45-67-1-130-3-141-5z"/></svg>